<?xml version="1.0" encoding="UTF-8"?><svg id="a" xmlns="http://www.w3.org/2000/svg" xmlns:xlink="http://www.w3.org/1999/xlink" viewBox="0 0 130.27 67.48"><defs><style>.c{clip-path:url(#b);}.d{fill:none;}.e{fill:#e77474;fill-rule:evenodd;}</style><clipPath id="b"><rect class="d" x="3.11" y="10.52" width="124.04" height="46.45" transform="translate(-4.91 11.94) rotate(-10.1)"/></clipPath></defs><g class="c"><path class="e" d="M107.07,2.69L15.06,19.07C6.74,20.55,1.2,28.49,2.68,36.81l2.78,15.62c1.48,8.31,9.42,13.85,17.74,12.38l92.01-16.39c8.31-1.48,13.85-9.42,12.38-17.74l-2.78-15.62c-1.48-8.31-9.42-13.85-17.74-12.38h0ZM8.26,35.82c-.93-5.23,2.55-10.23,7.79-11.17L108.06,8.27c5.23-.93,10.23,2.55,11.17,7.79l2.78,15.62c.93,5.23-2.55,10.23-7.79,11.17L22.21,59.23c-5.23,.93-10.23-2.55-11.17-7.79l-2.78-15.62h0Zm12.21,16.56c.35,.11,.7,.14,1.08,.07s.69-.21,.96-.43c.29-.22,.4-.49,.35-.81l-1.04-5.83,1.4-2.61,7.22,7.6c.16,.18,.35,.3,.56,.36,.2,.04,.4,.05,.61,0,.28-.05,.54-.16,.78-.34,.25-.2,.44-.42,.57-.67,.08-.18,.14-.35,.14-.52,.16,.15,.33,.28,.53,.4,.83,.46,1.76,.61,2.78,.42,.95-.17,1.73-.54,2.33-1.1s1.1-1.17,1.49-1.82l.18,.97c.05,.26,.22,.47,.52,.63,.29,.14,.62,.18,1,.11,.41-.07,.72-.23,.95-.46,.24-.25,.34-.51,.29-.77l-1.25-7c-.17-.95-.51-1.8-1.03-2.55-.52-.75-1.23-1.31-2.14-1.66-.91-.37-2.06-.44-3.43-.19-.63,.11-1.26,.31-1.88,.59-.62,.27-1.13,.58-1.53,.93-.38,.33-.54,.67-.48,1.01s.21,.65,.46,.95c.24,.28,.53,.4,.87,.33,.19-.03,.38-.14,.57-.33,.2-.19,.47-.38,.82-.58s.87-.36,1.55-.48c.69-.12,1.26-.06,1.7,.19,.46,.23,.82,.56,1.07,.99,.27,.41,.44,.86,.53,1.34l.09,.5-1.23,.22c-1.28,.23-2.4,.54-3.34,.94-.93,.4-1.62,.93-2.07,1.61-.45,.67-.59,1.54-.4,2.6,.06,.32,.14,.62,.24,.89l-7.53-7.97,4.16-7.65c.06-.11,.1-.22,.11-.33,.02-.12,.02-.22,0-.29-.05-.26-.18-.49-.41-.67-.21-.21-.47-.37-.78-.46-.29-.1-.55-.13-.79-.09-.35,.06-.61,.25-.76,.57l-5.2,10.22-1.51-8.47c-.06-.33-.26-.55-.6-.64-.32-.1-.67-.11-1.04-.05s-.7,.2-.99,.41c-.27,.2-.37,.47-.32,.8l3.29,18.46c.06,.32,.25,.53,.58,.65h-.01Zm17.88-5.43c-.4,.36-.83,.58-1.29,.66-.52,.09-.98,.03-1.39-.19-.39-.24-.64-.67-.75-1.3-.11-.59,0-1.06,.32-1.41,.34-.37,.82-.65,1.43-.83,.62-.2,1.27-.37,1.98-.5l.7-.12,.18,1.03c.08,.45,0,.91-.24,1.39-.22,.48-.54,.9-.96,1.26h0Zm-2.21-14.18c.29,.22,.61,.29,.96,.23s.63-.24,.82-.55,.26-.63,.2-.99-.24-.63-.52-.83c-.29-.22-.61-.29-.96-.23s-.63,.24-.82,.55c-.2,.28-.27,.61-.2,.96s.24,.64,.53,.86Zm-3.9,.7c.31,.22,.63,.29,.99,.23s.62-.24,.79-.54c.19-.31,.26-.63,.2-.99s-.24-.63-.52-.83c-.27-.22-.58-.3-.93-.24s-.63,.25-.85,.56c-.2,.28-.27,.61-.2,.96s.24,.64,.53,.86Zm13.02,14.45c.32,.15,.69,.19,1.12,.12s.74-.24,.97-.49c.26-.25,.37-.51,.33-.75l-1.23-6.92c-.11-.61-.07-1.16,.11-1.63,.19-.48,.46-.86,.83-1.16,.37-.32,.77-.51,1.22-.59,.52-.09,1.01-.03,1.47,.17,.48,.2,.88,.5,1.22,.91,.34,.4,.56,.84,.64,1.33l1.23,6.92c.06,.32,.25,.53,.6,.64s.69,.14,1.02,.08c.37-.07,.69-.21,.96-.43,.29-.22,.4-.49,.35-.81l-1.23-6.92c-.18-1.02-.57-1.9-1.16-2.64-.59-.76-1.31-1.31-2.14-1.66-.82-.37-1.66-.48-2.53-.33s-1.6,.52-2.14,1.07c-.52,.53-.87,1.09-1.05,1.68l-1.58-8.86c-.05-.28-.24-.48-.57-.59-.31-.14-.67-.17-1.08-.1s-.76,.23-1.01,.47c-.23,.22-.32,.46-.27,.74l3.41,19.16c.05,.24,.22,.44,.51,.6h0Zm12.9-2.31c.32,.15,.68,.2,1.09,.12s.76-.24,1-.49c.26-.25,.37-.51,.33-.75l-.62-3.48,1.71-2.2,5.18,5.32c.24,.24,.52,.34,.86,.28,.24-.05,.47-.16,.69-.35,.23-.19,.41-.42,.54-.67,.15-.25,.2-.5,.15-.75-.03-.15-.11-.31-.25-.47l-5.5-5.52,3.02-3.85c.07-.11,.12-.22,.15-.31,.02-.12,.02-.23,0-.35-.04-.22-.15-.42-.34-.6-.19-.2-.41-.34-.65-.43-.23-.11-.46-.15-.68-.11-.24,.05-.43,.16-.57,.36l-4.88,6.39-2.21-12.41c-.05-.28-.24-.48-.57-.59-.31-.14-.68-.16-1.11-.09s-.74,.23-.98,.46c-.23,.22-.32,.46-.27,.74l3.41,19.16c.05,.24,.22,.44,.51,.6h0Zm14.14-2.75c.98,.35,1.99,.42,3.04,.24s1.95-.61,2.74-1.26,1.37-1.45,1.73-2.38,.47-1.89,.29-2.87l-1.25-7c-.05-.26-.23-.46-.54-.59-.29-.14-.65-.17-1.08-.1-.37,.07-.7,.22-.98,.46-.27,.24-.37,.49-.33,.75l1.25,7c.08,.48,.04,.97-.14,1.46-.16,.49-.43,.91-.81,1.27s-.83,.58-1.35,.67-1.03,.04-1.52-.16c-.48-.2-.88-.5-1.22-.91-.32-.4-.53-.84-.61-1.33l-1.24-6.97c-.05-.24-.23-.44-.57-.59-.32-.15-.67-.2-1.06-.13s-.74,.24-1,.49c-.24,.25-.34,.5-.3,.74l1.24,6.97c.17,.95,.59,1.8,1.26,2.57,.67,.74,1.49,1.3,2.45,1.67Zm10.63-1.66c.32,.15,.68,.2,1.09,.12s.76-.24,1-.49c.26-.25,.37-.51,.33-.75l-.62-3.48,1.7-2.2,5.18,5.32c.24,.24,.52,.34,.86,.28,.24-.05,.47-.16,.69-.35,.23-.19,.41-.42,.54-.67,.15-.25,.2-.5,.15-.75-.03-.15-.11-.31-.25-.47l-5.5-5.52,3.02-3.85c.07-.11,.12-.22,.15-.31,.02-.12,.02-.23,0-.35-.04-.22-.15-.42-.34-.6-.19-.2-.41-.34-.65-.43-.23-.11-.46-.15-.68-.11-.24,.05-.43,.16-.57,.36l-4.87,6.39-2.21-12.41c-.05-.28-.24-.48-.57-.59-.31-.14-.68-.16-1.11-.09s-.74,.23-.98,.46c-.23,.22-.32,.46-.27,.74l3.41,19.16c.05,.24,.22,.44,.51,.6h0Zm11.71-2.46c.83,.46,1.76,.61,2.78,.42,.95-.17,1.73-.54,2.33-1.1,.61-.57,1.1-1.17,1.49-1.82l.18,.97c.05,.26,.22,.47,.52,.63,.29,.14,.63,.18,1,.11,.41-.07,.72-.23,.95-.46,.24-.25,.34-.51,.29-.77l-1.25-7c-.17-.95-.51-1.8-1.03-2.55-.52-.75-1.23-1.31-2.14-1.66-.91-.37-2.06-.44-3.43-.19-.63,.11-1.26,.31-1.88,.59-.62,.27-1.13,.58-1.53,.93-.38,.33-.54,.67-.48,1.01s.21,.65,.46,.95c.24,.28,.53,.4,.87,.33,.19-.03,.38-.14,.57-.33,.2-.19,.47-.38,.82-.58,.35-.2,.87-.36,1.55-.48s1.26-.06,1.7,.19c.46,.23,.82,.56,1.07,.99,.27,.41,.44,.86,.53,1.34l.09,.5-1.23,.22c-1.28,.23-2.4,.54-3.34,.94-.93,.4-1.62,.93-2.07,1.61-.45,.67-.59,1.54-.4,2.6,.22,1.25,.75,2.11,1.59,2.59h0Zm4.74-2.66c-.4,.36-.83,.58-1.29,.66-.52,.09-.98,.03-1.39-.19-.39-.24-.64-.67-.75-1.3-.11-.59,0-1.06,.32-1.41,.34-.37,.82-.65,1.43-.83,.62-.2,1.27-.37,1.98-.5l.7-.12,.18,1.03c.08,.45,0,.91-.24,1.39-.22,.48-.54,.9-.96,1.26h0Zm8.11,.95c.76,.1,1.6,.06,2.51-.1,1.56-.28,2.7-.84,3.41-1.7,.73-.86,.99-1.87,.78-3.05-.15-.84-.44-1.48-.86-1.92-.41-.45-.89-.77-1.47-.97-.56-.21-1.13-.33-1.74-.38-.61-.06-1.18-.12-1.73-.18-.55-.06-1-.17-1.35-.33s-.57-.45-.64-.86c-.05-.24-.01-.5,.1-.76,.11-.27,.3-.52,.59-.74,.3-.24,.72-.41,1.26-.51s1.01-.11,1.4-.05c.4,.06,.75,.15,1.05,.24,.3,.08,.54,.1,.73,.07,.24-.05,.42-.16,.54-.36,.14-.22,.23-.44,.28-.69,.05-.26,.06-.45,.04-.58-.05-.3-.31-.53-.76-.7-.45-.19-1.01-.3-1.67-.33s-1.34,.01-2.04,.14c-1.17,.21-2.07,.58-2.71,1.12-.62,.52-1.03,1.12-1.23,1.8-.21,.67-.25,1.32-.14,1.95,.14,.76,.4,1.35,.8,1.76,.42,.41,.9,.69,1.45,.87,.57,.17,1.16,.28,1.76,.35,.6,.05,1.17,.11,1.7,.19,.55,.07,1.01,.22,1.38,.45,.38,.2,.61,.54,.7,1.03,.07,.37-.04,.75-.32,1.12-.26,.37-.86,.64-1.78,.8-.8,.14-1.44,.15-1.92,.03-.49-.14-.88-.29-1.2-.45-.3-.18-.57-.24-.81-.2-.19,.03-.35,.14-.49,.32-.12,.18-.21,.37-.27,.59-.04,.22-.04,.41-.01,.58,.06,.35,.33,.67,.8,.95,.49,.26,1.11,.44,1.87,.53l-.02-.02Z"/></g></svg>