<?xml version="1.0" encoding="UTF-8"?><svg id="a" xmlns="http://www.w3.org/2000/svg" xmlns:xlink="http://www.w3.org/1999/xlink" viewBox="0 0 79.95 41.42"><defs><style>.c{clip-path:url(#b);}.d{fill:none;}.e{fill:#e77474;fill-rule:evenodd;}</style><clipPath id="b"><rect class="d" x="1.91" y="6.45" width="76.13" height="28.51" transform="translate(-3.01 7.33) rotate(-10.1)"/></clipPath></defs><g class="c"><path class="e" d="M65.71,1.65L9.24,11.71c-5.1,.91-8.5,5.78-7.6,10.89l1.71,9.58c.91,5.1,5.78,8.5,10.89,7.6l56.47-10.06c5.1-.91,8.5-5.78,7.6-10.89l-1.71-9.58c-.91-5.1-5.78-8.5-10.89-7.6h0ZM5.07,21.99c-.57-3.21,1.57-6.28,4.78-6.86L66.32,5.07c3.21-.57,6.28,1.57,6.86,4.78l1.71,9.58c.57,3.21-1.57,6.28-4.78,6.86L13.63,36.35c-3.21,.57-6.28-1.57-6.86-4.78l-1.71-9.58h0Zm7.5,10.16c.21,.07,.43,.08,.66,.04s.42-.13,.59-.26c.18-.14,.25-.3,.21-.5l-.64-3.58,.86-1.6,4.43,4.67c.1,.11,.22,.18,.34,.22,.12,.02,.25,.03,.37,0,.17-.03,.33-.1,.48-.21,.16-.12,.27-.26,.35-.41,.05-.11,.08-.21,.09-.32,.1,.09,.21,.17,.32,.24,.51,.29,1.08,.37,1.71,.26,.58-.1,1.06-.33,1.43-.68s.68-.72,.91-1.12l.11,.6c.03,.16,.13,.29,.32,.39,.18,.09,.38,.11,.61,.07,.25-.05,.44-.14,.58-.28,.15-.16,.21-.31,.18-.47l-.76-4.3c-.1-.58-.31-1.1-.63-1.56-.32-.46-.75-.8-1.31-1.02-.56-.23-1.26-.27-2.1-.12-.39,.07-.77,.19-1.15,.37-.38,.16-.7,.35-.94,.57-.23,.21-.33,.41-.3,.62s.13,.4,.28,.58c.15,.17,.33,.24,.53,.21,.11-.02,.23-.09,.35-.21,.12-.11,.29-.23,.5-.35s.53-.22,.95-.29c.42-.07,.77-.04,1.04,.11,.29,.14,.5,.34,.66,.61,.16,.25,.27,.53,.32,.82l.06,.31-.75,.14c-.79,.14-1.47,.33-2.05,.58-.57,.24-.99,.57-1.27,.99-.28,.41-.36,.95-.25,1.6,.03,.2,.08,.38,.15,.55l-4.62-4.89,2.56-4.69c.03-.07,.06-.14,.07-.21,.01-.07,.01-.13,0-.18-.03-.16-.11-.3-.25-.41-.13-.13-.29-.23-.48-.29-.18-.06-.34-.08-.49-.06-.22,.04-.37,.15-.47,.35l-3.19,6.27-.92-5.2c-.04-.21-.16-.34-.37-.39-.2-.06-.41-.07-.64-.03s-.43,.13-.61,.25c-.17,.13-.23,.29-.19,.49l2.02,11.33c.03,.19,.15,.33,.35,.4h0Zm10.97-3.33c-.24,.22-.51,.35-.79,.41-.32,.06-.6,.02-.85-.11-.24-.15-.39-.41-.46-.8-.07-.37,0-.65,.2-.87,.21-.23,.5-.4,.88-.51,.38-.13,.78-.23,1.22-.31l.43-.08,.11,.63c.05,.27,0,.56-.15,.86-.14,.3-.33,.55-.59,.78h0Zm-1.36-8.7c.18,.13,.37,.18,.59,.14s.39-.15,.5-.34,.16-.39,.12-.6-.15-.39-.32-.51c-.18-.13-.37-.18-.59-.14s-.39,.15-.5,.34c-.12,.17-.16,.37-.13,.59s.15,.39,.32,.52Zm-2.4,.43c.19,.13,.39,.18,.61,.14s.38-.15,.49-.33c.12-.19,.16-.39,.12-.6s-.15-.39-.32-.51c-.17-.14-.36-.18-.57-.15s-.39,.15-.52,.34c-.12,.17-.16,.37-.13,.59s.15,.39,.32,.52Zm7.99,8.87c.19,.09,.42,.12,.68,.07s.45-.15,.6-.3c.16-.16,.23-.31,.2-.46l-.75-4.24c-.07-.38-.05-.71,.07-1,.11-.29,.28-.53,.51-.71,.23-.19,.47-.31,.75-.36,.32-.06,.62-.02,.9,.1,.29,.13,.54,.31,.75,.56,.21,.25,.34,.52,.39,.81l.75,4.24c.03,.19,.16,.32,.37,.39s.42,.08,.63,.05c.23-.04,.42-.13,.59-.26,.18-.14,.25-.3,.21-.5l-.75-4.24c-.11-.63-.35-1.17-.71-1.62-.37-.47-.8-.8-1.31-1.02-.5-.23-1.02-.3-1.55-.2s-.98,.32-1.31,.66c-.32,.33-.53,.67-.65,1.03l-.97-5.44c-.03-.17-.15-.29-.35-.36-.19-.08-.41-.1-.66-.06s-.47,.14-.62,.29c-.14,.13-.2,.28-.17,.45l2.09,11.76c.03,.15,.13,.27,.31,.37h0Zm7.92-1.41c.19,.09,.42,.12,.67,.08s.47-.15,.62-.3c.16-.16,.23-.31,.2-.46l-.38-2.14,1.05-1.35,3.18,3.26c.15,.15,.32,.21,.52,.17,.15-.03,.29-.1,.42-.22,.14-.12,.25-.26,.33-.41,.09-.16,.12-.31,.09-.46-.02-.09-.07-.19-.16-.29l-3.38-3.39,1.86-2.36c.05-.07,.08-.13,.09-.19,.01-.07,.01-.14,0-.21-.02-.14-.09-.26-.21-.37-.11-.12-.25-.21-.4-.26-.14-.07-.28-.09-.42-.07-.15,.03-.26,.1-.35,.22l-2.99,3.92-1.36-7.62c-.03-.17-.15-.29-.35-.36-.19-.08-.42-.1-.68-.06s-.45,.14-.6,.29c-.14,.13-.2,.28-.17,.45l2.09,11.76c.03,.15,.13,.27,.31,.37h0Zm8.68-1.69c.6,.21,1.22,.26,1.86,.15s1.2-.37,1.68-.78,.84-.89,1.06-1.46,.29-1.16,.18-1.76l-.76-4.3c-.03-.16-.14-.28-.33-.37-.18-.09-.4-.1-.66-.06-.23,.04-.43,.14-.6,.29-.16,.15-.23,.3-.2,.46l.76,4.3c.05,.3,.02,.59-.09,.9-.1,.3-.26,.56-.5,.78s-.51,.35-.83,.41-.63,.02-.94-.1c-.29-.13-.54-.31-.75-.56-.2-.25-.32-.52-.38-.82l-.76-4.28c-.03-.15-.14-.27-.35-.36-.19-.09-.41-.12-.65-.08s-.46,.15-.62,.3c-.15,.16-.21,.31-.18,.46l.76,4.28c.1,.58,.36,1.11,.78,1.57,.41,.46,.91,.8,1.51,1.02Zm6.52-1.02c.19,.09,.42,.12,.67,.08s.47-.15,.62-.3c.16-.16,.23-.31,.2-.46l-.38-2.14,1.05-1.35,3.18,3.26c.15,.15,.32,.21,.52,.17,.15-.03,.29-.1,.42-.22,.14-.12,.25-.26,.33-.41,.09-.16,.12-.31,.09-.46-.02-.09-.07-.19-.16-.29l-3.38-3.39,1.86-2.36c.05-.07,.08-.13,.09-.19,.01-.07,.01-.14,0-.21-.02-.14-.09-.26-.21-.37-.11-.12-.25-.21-.4-.26-.14-.07-.28-.09-.42-.07-.15,.03-.26,.1-.35,.22l-2.99,3.92-1.36-7.62c-.03-.17-.15-.29-.35-.36-.19-.08-.42-.1-.68-.06s-.45,.14-.6,.29c-.14,.13-.2,.28-.17,.45l2.09,11.76c.03,.15,.13,.27,.31,.37h0Zm7.19-1.51c.51,.29,1.08,.37,1.71,.26,.58-.1,1.06-.33,1.43-.68,.37-.35,.68-.72,.91-1.12l.11,.6c.03,.16,.14,.29,.32,.39,.18,.09,.39,.11,.61,.07,.25-.05,.44-.14,.58-.28,.15-.16,.21-.31,.18-.47l-.76-4.3c-.1-.58-.31-1.1-.63-1.56-.32-.46-.75-.8-1.31-1.02-.56-.23-1.26-.27-2.1-.12-.39,.07-.77,.19-1.15,.37-.38,.16-.7,.35-.94,.57-.23,.21-.33,.41-.3,.62s.13,.4,.28,.58c.15,.17,.33,.24,.53,.21,.11-.02,.23-.09,.35-.21,.12-.11,.29-.23,.5-.35,.22-.12,.53-.22,.95-.29s.77-.04,1.04,.11c.29,.14,.5,.34,.66,.61,.16,.25,.27,.53,.32,.82l.06,.31-.75,.14c-.79,.14-1.47,.33-2.05,.58-.57,.24-.99,.57-1.27,.99-.28,.41-.36,.95-.25,1.6,.14,.76,.46,1.3,.97,1.59h0Zm2.91-1.63c-.24,.22-.51,.35-.79,.41-.32,.06-.6,.02-.85-.11-.24-.15-.39-.41-.46-.8-.07-.37,0-.65,.2-.87,.21-.23,.5-.4,.88-.51,.38-.13,.78-.23,1.22-.31l.43-.08,.11,.63c.05,.27,0,.56-.15,.86-.14,.3-.33,.55-.59,.78h0Zm4.97,.58c.47,.06,.98,.04,1.54-.06,.96-.17,1.65-.52,2.09-1.04,.45-.53,.61-1.15,.48-1.87-.09-.51-.27-.91-.53-1.18-.25-.27-.55-.47-.9-.6-.34-.13-.7-.21-1.07-.23-.37-.04-.73-.08-1.06-.11-.34-.03-.61-.1-.83-.21s-.35-.28-.39-.53c-.03-.15,0-.31,.06-.47,.07-.16,.18-.32,.36-.45,.18-.15,.44-.25,.78-.31s.62-.07,.86-.03c.24,.04,.46,.09,.64,.15,.18,.05,.33,.06,.45,.05,.15-.03,.26-.1,.33-.22,.08-.13,.14-.27,.17-.42,.03-.16,.04-.28,.02-.36-.03-.18-.19-.33-.47-.43-.28-.11-.62-.18-1.03-.21s-.82,0-1.25,.08c-.72,.13-1.27,.35-1.66,.68-.38,.32-.63,.68-.76,1.11-.13,.41-.16,.81-.09,1.2,.08,.47,.25,.83,.49,1.08,.26,.25,.55,.42,.89,.53,.35,.1,.71,.17,1.08,.21,.37,.03,.72,.07,1.04,.11,.34,.05,.62,.14,.84,.27,.23,.12,.38,.33,.43,.63,.04,.23-.02,.46-.19,.69-.16,.23-.52,.39-1.1,.49-.49,.09-.88,.09-1.18,.02-.3-.09-.54-.18-.74-.27-.18-.11-.35-.15-.5-.12-.11,.02-.22,.09-.3,.19-.08,.11-.13,.23-.16,.37-.02,.13-.02,.25,0,.35,.04,.22,.2,.41,.49,.58,.3,.16,.68,.27,1.15,.32h-.01Z"/></g></svg>