<?xml version="1.0" encoding="UTF-8"?><svg id="a" xmlns="http://www.w3.org/2000/svg" xmlns:xlink="http://www.w3.org/1999/xlink" viewBox="0 0 100.58 52.1"><defs><style>.c{clip-path:url(#b);}.d{fill:none;}.e{fill:#e77474;fill-rule:evenodd;}</style><clipPath id="b"><rect class="d" x="2.4" y="8.12" width="95.78" height="35.86" transform="translate(-3.79 9.22) rotate(-10.1)"/></clipPath></defs><g class="c"><path class="e" d="M82.67,2.08L11.62,14.73C5.2,15.87,.93,22,2.07,28.43l2.15,12.06c1.14,6.42,7.27,10.7,13.7,9.56l71.04-12.65c6.42-1.14,10.7-7.27,9.56-13.7l-2.15-12.06c-1.14-6.42-7.27-10.7-13.7-9.56h0ZM6.38,27.66c-.72-4.04,1.97-7.9,6.02-8.62L83.44,6.38c4.04-.72,7.9,1.97,8.62,6.02l2.15,12.06c.72,4.04-1.97,7.9-6.02,8.62L17.15,45.73c-4.04,.72-7.9-1.97-8.62-6.02l-2.15-12.06h0Zm9.43,12.78c.27,.09,.54,.1,.83,.05s.53-.16,.74-.33c.22-.17,.31-.38,.27-.63l-.8-4.5,1.08-2.02,5.58,5.87c.13,.14,.27,.23,.43,.28,.15,.03,.31,.03,.47,0,.21-.04,.42-.13,.6-.26,.2-.15,.34-.33,.44-.52,.07-.14,.1-.27,.11-.4,.12,.12,.26,.22,.41,.31,.64,.36,1.36,.47,2.15,.33,.73-.13,1.33-.42,1.8-.85s.85-.91,1.15-1.4l.14,.75c.03,.2,.17,.36,.4,.49,.23,.11,.48,.14,.77,.08,.31-.06,.56-.17,.73-.35,.19-.2,.26-.39,.23-.59l-.96-5.41c-.13-.73-.39-1.39-.8-1.97-.4-.58-.95-1.01-1.65-1.28-.7-.29-1.59-.34-2.65-.15-.49,.09-.97,.24-1.45,.46-.48,.21-.87,.45-1.18,.72-.29,.26-.42,.52-.37,.78s.16,.5,.35,.73c.19,.22,.41,.31,.67,.26,.14-.03,.29-.11,.44-.26,.15-.14,.36-.29,.63-.45s.67-.28,1.2-.37c.53-.09,.97-.05,1.31,.14,.36,.17,.63,.43,.83,.77,.21,.32,.34,.66,.41,1.04l.07,.39-.95,.17c-.99,.17-1.85,.42-2.58,.73-.72,.31-1.25,.72-1.6,1.24-.35,.52-.45,1.19-.31,2.01,.04,.25,.1,.48,.18,.69l-5.82-6.15,3.21-5.9c.04-.08,.07-.17,.09-.26,.01-.09,.01-.17,0-.22-.03-.2-.14-.38-.31-.52-.16-.16-.36-.28-.6-.36-.22-.08-.42-.1-.61-.07-.27,.05-.47,.19-.59,.44l-4.01,7.89-1.16-6.54c-.05-.26-.2-.42-.46-.49-.25-.07-.52-.09-.8-.03s-.54,.16-.77,.31c-.21,.16-.29,.36-.24,.62l2.54,14.25c.04,.24,.19,.41,.45,.5h0Zm13.8-4.19c-.31,.28-.64,.45-1,.51-.4,.07-.76,.02-1.07-.14-.3-.18-.49-.52-.58-1.01-.08-.46,0-.82,.25-1.09,.26-.28,.63-.5,1.11-.64,.48-.16,.98-.29,1.53-.38l.54-.1,.14,.8c.06,.35,0,.7-.18,1.08-.17,.37-.42,.7-.74,.98h0Zm-1.71-10.95c.22,.17,.47,.23,.74,.18s.49-.19,.63-.42,.2-.49,.15-.76-.18-.49-.4-.64c-.22-.17-.47-.23-.74-.18s-.49,.19-.63,.42c-.15,.22-.21,.47-.16,.74s.18,.49,.41,.66Zm-3.01,.54c.24,.17,.49,.22,.77,.17s.48-.19,.61-.42c.15-.24,.2-.49,.15-.76s-.18-.49-.4-.64c-.21-.17-.45-.23-.72-.18s-.49,.19-.66,.43c-.15,.22-.21,.47-.16,.74s.18,.49,.41,.66Zm10.05,11.16c.24,.12,.53,.15,.86,.09s.57-.18,.75-.38c.2-.2,.28-.39,.25-.58l-.95-5.34c-.08-.47-.06-.89,.09-1.26,.14-.37,.35-.66,.64-.89,.28-.24,.59-.39,.94-.45,.4-.07,.78-.03,1.13,.13,.37,.16,.68,.39,.94,.7,.26,.31,.43,.65,.49,1.02l.95,5.34c.04,.24,.2,.41,.46,.49s.53,.1,.79,.06c.29-.05,.53-.16,.74-.33,.22-.17,.31-.38,.27-.63l-.95-5.34c-.14-.79-.44-1.47-.9-2.04-.46-.59-1.01-1.01-1.65-1.28-.63-.29-1.28-.37-1.95-.25s-1.24,.4-1.65,.83c-.4,.41-.67,.84-.81,1.3l-1.22-6.84c-.04-.21-.18-.37-.44-.45-.24-.1-.52-.13-.84-.07s-.59,.18-.78,.36c-.18,.17-.25,.35-.21,.57l2.63,14.79c.03,.19,.17,.34,.39,.46h0Zm9.96-1.78c.24,.12,.52,.15,.84,.1s.59-.19,.77-.38c.2-.2,.28-.39,.25-.58l-.48-2.69,1.32-1.7,4,4.11c.18,.19,.4,.26,.66,.21,.19-.03,.36-.12,.53-.27,.18-.15,.32-.32,.42-.52,.11-.2,.15-.39,.12-.58-.02-.11-.09-.24-.2-.36l-4.25-4.26,2.34-2.97c.06-.08,.1-.17,.11-.24,.01-.09,.01-.18,0-.27-.03-.17-.12-.33-.26-.46-.14-.15-.31-.26-.5-.33-.18-.09-.35-.11-.52-.08-.19,.03-.33,.13-.44,.28l-3.77,4.93-1.71-9.58c-.04-.21-.18-.37-.44-.45-.24-.1-.52-.13-.86-.07s-.57,.17-.76,.36c-.18,.17-.25,.35-.21,.57l2.63,14.79c.03,.19,.17,.34,.39,.46h0Zm10.92-2.13c.76,.27,1.54,.32,2.34,.18s1.51-.47,2.11-.98,1.05-1.12,1.34-1.84,.36-1.46,.23-2.22l-.96-5.41c-.03-.2-.17-.35-.42-.46-.23-.11-.5-.13-.84-.07-.29,.05-.54,.17-.76,.36-.21,.18-.29,.38-.25,.58l.96,5.41c.07,.37,.03,.75-.11,1.13-.13,.38-.33,.7-.63,.98s-.64,.45-1.04,.52-.8,.03-1.18-.12c-.37-.16-.68-.39-.94-.7-.25-.31-.41-.65-.47-1.03l-.96-5.38c-.03-.19-.18-.34-.44-.45-.24-.12-.52-.15-.82-.1s-.57,.18-.77,.38c-.19,.2-.26,.39-.23,.57l.96,5.38c.13,.73,.45,1.39,.98,1.98,.52,.57,1.15,1,1.89,1.29Zm8.2-1.28c.24,.12,.52,.15,.84,.1s.59-.19,.77-.38c.2-.2,.28-.39,.25-.58l-.48-2.69,1.32-1.7,4,4.11c.18,.19,.4,.26,.66,.21,.19-.03,.36-.12,.53-.27,.18-.15,.32-.32,.42-.52,.11-.2,.15-.39,.12-.58-.02-.11-.09-.24-.2-.36l-4.25-4.26,2.34-2.97c.06-.08,.1-.17,.11-.24,.01-.09,.01-.18,0-.27-.03-.17-.12-.33-.26-.46-.14-.15-.31-.26-.5-.33-.18-.09-.35-.11-.52-.08-.19,.03-.33,.13-.44,.28l-3.76,4.93-1.71-9.58c-.04-.21-.18-.37-.44-.45-.24-.1-.52-.13-.86-.07s-.57,.17-.76,.36c-.18,.17-.25,.35-.21,.57l2.63,14.79c.03,.19,.17,.34,.39,.46h0Zm9.04-1.9c.64,.36,1.36,.47,2.15,.33,.73-.13,1.33-.42,1.8-.85,.47-.44,.85-.91,1.15-1.4l.14,.75c.03,.2,.17,.36,.4,.49,.23,.11,.49,.14,.77,.08,.31-.06,.56-.17,.73-.35,.19-.2,.26-.39,.23-.59l-.96-5.41c-.13-.73-.39-1.39-.8-1.97-.4-.58-.95-1.01-1.65-1.28-.7-.29-1.59-.34-2.65-.15-.49,.09-.97,.24-1.45,.46-.48,.21-.87,.45-1.18,.72-.29,.26-.42,.52-.37,.78s.16,.5,.35,.73c.19,.22,.41,.31,.67,.26,.14-.03,.29-.11,.44-.26,.15-.14,.36-.29,.63-.45,.27-.15,.67-.28,1.2-.37s.97-.05,1.31,.14c.36,.17,.63,.43,.83,.77,.21,.32,.34,.66,.41,1.04l.07,.39-.95,.17c-.99,.17-1.85,.42-2.58,.73-.72,.31-1.25,.72-1.6,1.24-.35,.52-.45,1.19-.31,2.01,.17,.96,.58,1.63,1.22,2h0Zm3.66-2.06c-.31,.28-.64,.45-1,.51-.4,.07-.76,.02-1.07-.14-.3-.18-.49-.52-.58-1.01-.08-.46,0-.82,.25-1.09,.26-.28,.63-.5,1.11-.64,.48-.16,.98-.29,1.53-.38l.54-.1,.14,.8c.06,.35,0,.7-.18,1.08-.17,.37-.42,.7-.74,.98h0Zm6.26,.73c.59,.07,1.24,.05,1.94-.08,1.21-.21,2.08-.65,2.63-1.31,.56-.66,.77-1.45,.6-2.35-.11-.65-.34-1.14-.66-1.48-.31-.35-.69-.59-1.13-.75-.43-.16-.87-.26-1.34-.29-.47-.05-.91-.1-1.33-.14-.42-.04-.77-.13-1.05-.26s-.44-.35-.49-.66c-.03-.19,0-.38,.07-.59,.08-.21,.23-.4,.45-.57,.23-.19,.56-.32,.98-.39s.78-.09,1.08-.03c.31,.05,.58,.11,.81,.19,.23,.06,.42,.08,.56,.06,.19-.03,.32-.12,.42-.28,.1-.17,.17-.34,.22-.53,.04-.2,.05-.35,.03-.45-.04-.23-.24-.41-.59-.54-.35-.14-.78-.23-1.29-.26s-1.04,0-1.58,.1c-.91,.16-1.6,.45-2.09,.86-.48,.4-.8,.86-.95,1.39-.16,.52-.2,1.02-.11,1.51,.1,.59,.31,1.04,.62,1.36,.32,.31,.7,.53,1.12,.67,.44,.13,.89,.22,1.36,.27,.46,.03,.91,.08,1.31,.14,.42,.06,.78,.17,1.06,.35,.29,.15,.47,.42,.54,.79,.05,.29-.03,.58-.24,.87-.2,.29-.66,.49-1.38,.62-.62,.11-1.11,.12-1.48,.02-.38-.11-.68-.23-.93-.35-.23-.14-.44-.19-.63-.15-.14,.03-.27,.11-.38,.24-.1,.14-.16,.29-.21,.46-.03,.17-.03,.31,0,.45,.05,.27,.25,.52,.62,.73,.38,.2,.86,.34,1.45,.41h-.01Z"/></g></svg>