<?xml version="1.0" encoding="UTF-8"?><svg id="a" xmlns="http://www.w3.org/2000/svg" xmlns:xlink="http://www.w3.org/1999/xlink" viewBox="0 0 151.08 78.26"><defs><style>.c{clip-path:url(#b);}.d{fill:none;}.e{fill:#e77474;fill-rule:evenodd;}</style><clipPath id="b"><rect class="d" x="3.61" y="12.2" width="143.87" height="53.87" transform="translate(-5.69 13.85) rotate(-10.1)"/></clipPath></defs><g class="c"><path class="e" d="M124.18,3.12L17.46,22.12C7.82,23.84,1.39,33.05,3.11,42.7l3.23,18.11c1.71,9.64,10.92,16.07,20.58,14.35l106.71-19c9.64-1.71,16.07-10.92,14.35-20.58l-3.23-18.11c-1.71-9.64-10.92-16.07-20.58-14.35h0ZM9.58,41.55c-1.08-6.07,2.96-11.87,9.04-12.95L125.33,9.59c6.07-1.08,11.87,2.96,12.95,9.04l3.23,18.11c1.08,6.07-2.96,11.87-9.04,12.95L25.76,68.69c-6.07,1.08-11.87-2.96-12.95-9.04l-3.23-18.11h0Zm14.16,19.2c.4,.13,.81,.16,1.25,.08s.8-.24,1.11-.5c.34-.26,.47-.57,.4-.94l-1.2-6.76,1.63-3.03,8.38,8.82c.19,.21,.41,.35,.64,.42,.23,.05,.47,.05,.7,0,.32-.06,.62-.19,.9-.39,.3-.23,.51-.49,.66-.78,.1-.2,.16-.4,.16-.6,.18,.18,.39,.33,.61,.46,.97,.54,2.04,.7,3.23,.49,1.1-.2,2-.62,2.71-1.28s1.28-1.36,1.73-2.11l.2,1.13c.05,.3,.25,.55,.6,.73,.34,.16,.72,.2,1.16,.12,.47-.09,.84-.26,1.1-.53,.28-.3,.39-.59,.34-.89l-1.45-8.12c-.2-1.1-.59-2.08-1.2-2.96-.6-.87-1.43-1.52-2.48-1.92-1.06-.43-2.38-.51-3.97-.22-.74,.13-1.46,.36-2.18,.69-.72,.31-1.31,.67-1.77,1.08-.44,.39-.63,.78-.56,1.17s.24,.76,.53,1.1c.28,.33,.62,.46,1.01,.39,.22-.04,.44-.16,.66-.39,.23-.22,.55-.44,.95-.67s1.01-.41,1.8-.55c.79-.14,1.46-.07,1.97,.22,.54,.26,.95,.64,1.24,1.15,.31,.48,.51,1,.61,1.56l.11,.58-1.43,.26c-1.48,.26-2.78,.63-3.88,1.09-1.08,.46-1.88,1.08-2.4,1.87-.53,.78-.68,1.79-.47,3.02,.07,.37,.16,.72,.28,1.04l-8.74-9.24,4.83-8.87c.07-.12,.11-.26,.13-.39,.02-.14,.02-.25,0-.34-.05-.3-.21-.56-.47-.78-.24-.24-.55-.43-.9-.54-.34-.12-.64-.15-.92-.11-.41,.07-.7,.29-.89,.66l-6.03,11.85-1.75-9.83c-.07-.39-.3-.64-.7-.74-.37-.11-.78-.13-1.21-.05s-.81,.24-1.15,.47c-.32,.24-.43,.55-.37,.93l3.81,21.41c.07,.37,.29,.62,.67,.75h-.01Zm20.73-6.3c-.46,.41-.96,.67-1.5,.77-.6,.11-1.14,.03-1.61-.22-.45-.28-.74-.78-.87-1.51-.12-.69,0-1.24,.37-1.64,.39-.43,.95-.75,1.66-.97,.72-.24,1.48-.43,2.3-.58l.81-.14,.21,1.2c.09,.52,0,1.06-.28,1.62-.26,.56-.62,1.04-1.11,1.46h0Zm-2.56-16.45c.34,.25,.7,.34,1.12,.27s.73-.28,.95-.64,.3-.73,.23-1.14-.28-.73-.6-.96c-.34-.25-.7-.34-1.12-.27s-.73,.28-.95,.64c-.23,.33-.31,.7-.24,1.11s.28,.74,.61,.99Zm-4.53,.81c.35,.25,.74,.34,1.15,.26s.72-.28,.92-.63c.22-.35,.3-.73,.23-1.14s-.28-.73-.6-.96c-.32-.26-.68-.35-1.08-.28s-.74,.29-.99,.64c-.23,.33-.31,.7-.24,1.11s.28,.74,.61,.99Zm15.1,16.76c.37,.18,.79,.22,1.29,.14s.85-.28,1.13-.57c.3-.3,.43-.59,.38-.87l-1.43-8.02c-.12-.71-.09-1.34,.13-1.89,.22-.55,.53-1,.97-1.34,.43-.37,.89-.59,1.41-.68,.6-.11,1.17-.04,1.7,.2,.55,.24,1.02,.58,1.42,1.05,.39,.47,.64,.98,.74,1.54l1.43,8.02c.07,.37,.3,.61,.7,.74s.79,.16,1.18,.09c.43-.08,.8-.24,1.11-.5,.34-.26,.47-.57,.4-.94l-1.43-8.02c-.21-1.18-.66-2.21-1.35-3.06-.69-.88-1.52-1.52-2.48-1.92-.95-.43-1.92-.56-2.94-.38s-1.86,.6-2.48,1.24c-.6,.62-1.01,1.27-1.22,1.95l-1.83-10.28c-.06-.32-.28-.55-.66-.68-.36-.16-.78-.2-1.25-.11s-.89,.27-1.17,.55c-.27,.25-.37,.53-.32,.85l3.95,22.22c.05,.28,.25,.51,.59,.7h0Zm14.96-2.67c.37,.18,.79,.23,1.26,.14s.89-.28,1.16-.57c.3-.3,.43-.59,.38-.87l-.72-4.04,1.98-2.56,6,6.17c.28,.28,.6,.39,.99,.32,.28-.05,.55-.18,.79-.41,.27-.22,.48-.49,.63-.78,.17-.3,.23-.58,.18-.87-.03-.17-.13-.35-.3-.55l-6.38-6.41,3.51-4.46c.09-.12,.14-.25,.17-.36,.02-.14,.02-.27,0-.4-.05-.26-.18-.49-.39-.7-.22-.23-.47-.39-.76-.5-.27-.13-.53-.17-.79-.12-.28,.05-.5,.19-.66,.42l-5.66,7.41-2.56-14.39c-.06-.32-.28-.55-.66-.68-.36-.16-.79-.19-1.29-.11s-.85,.26-1.14,.54c-.27,.25-.37,.53-.32,.85l3.95,22.22c.05,.28,.25,.51,.59,.7h0Zm16.4-3.19c1.14,.4,2.31,.49,3.52,.28s2.27-.7,3.17-1.46,1.58-1.68,2.01-2.76,.55-2.19,.34-3.33l-1.45-8.12c-.05-.3-.26-.53-.62-.69-.34-.16-.76-.2-1.25-.11-.43,.08-.81,.26-1.14,.54-.31,.28-.43,.56-.38,.87l1.45,8.12c.1,.56,.05,1.12-.16,1.69-.19,.56-.5,1.06-.94,1.47s-.96,.67-1.56,.78-1.2,.05-1.77-.18c-.55-.24-1.02-.58-1.42-1.05-.37-.47-.61-.98-.71-1.54l-1.44-8.09c-.05-.28-.27-.51-.66-.68-.37-.18-.78-.23-1.23-.15s-.86,.28-1.16,.57c-.28,.3-.39,.58-.35,.86l1.44,8.09c.2,1.1,.68,2.09,1.46,2.98,.78,.86,1.73,1.5,2.84,1.93Zm12.32-1.92c.37,.18,.79,.23,1.26,.14s.89-.28,1.16-.57c.3-.3,.43-.59,.38-.87l-.72-4.04,1.98-2.56,6,6.17c.28,.28,.6,.39,.99,.32,.28-.05,.55-.18,.79-.41,.27-.22,.48-.49,.63-.78,.17-.3,.23-.58,.18-.87-.03-.17-.13-.35-.3-.55l-6.38-6.41,3.51-4.46c.09-.12,.14-.25,.17-.36,.02-.14,.02-.27,0-.4-.05-.26-.18-.49-.39-.7-.22-.23-.47-.39-.76-.5-.27-.13-.53-.17-.79-.12-.28,.05-.5,.19-.66,.42l-5.65,7.41-2.56-14.39c-.06-.32-.28-.55-.66-.68-.36-.16-.79-.19-1.29-.11s-.85,.26-1.14,.54c-.27,.25-.37,.53-.32,.85l3.95,22.22c.05,.28,.25,.51,.59,.7h0Zm13.59-2.86c.97,.54,2.04,.7,3.23,.49,1.1-.2,2-.62,2.71-1.28,.7-.66,1.28-1.36,1.73-2.11l.2,1.13c.05,.3,.26,.55,.6,.73,.34,.16,.73,.2,1.16,.12,.47-.09,.84-.26,1.1-.53,.28-.3,.39-.59,.34-.89l-1.45-8.12c-.2-1.1-.59-2.08-1.2-2.96-.6-.87-1.43-1.52-2.48-1.92-1.06-.43-2.38-.51-3.97-.22-.74,.13-1.46,.36-2.18,.69-.72,.31-1.31,.67-1.77,1.08-.44,.39-.63,.78-.56,1.17s.24,.76,.53,1.1c.28,.33,.62,.46,1.01,.39,.22-.04,.44-.16,.66-.39,.23-.22,.55-.44,.95-.67,.41-.23,1.01-.41,1.8-.55s1.46-.07,1.97,.22c.54,.26,.95,.64,1.24,1.15,.31,.48,.51,1,.61,1.56l.11,.58-1.43,.26c-1.48,.26-2.78,.63-3.88,1.09-1.08,.46-1.88,1.08-2.4,1.87-.53,.78-.68,1.79-.47,3.02,.26,1.45,.87,2.45,1.84,3.01h0Zm5.49-3.09c-.46,.41-.96,.67-1.5,.77-.6,.11-1.14,.03-1.61-.22-.45-.28-.74-.78-.87-1.51-.12-.69,0-1.24,.37-1.64,.39-.43,.95-.75,1.66-.97,.72-.24,1.48-.43,2.3-.58l.81-.14,.21,1.2c.09,.52,0,1.06-.28,1.62-.26,.56-.62,1.04-1.11,1.46h0Zm9.4,1.1c.89,.11,1.86,.07,2.92-.12,1.81-.32,3.13-.98,3.95-1.97,.85-1,1.15-2.17,.91-3.53-.17-.97-.51-1.71-1-2.23-.47-.52-1.04-.89-1.7-1.13-.64-.24-1.31-.39-2.02-.44-.7-.07-1.37-.14-2-.21-.64-.07-1.16-.2-1.57-.39s-.66-.53-.74-1c-.05-.28-.01-.58,.11-.89,.12-.31,.35-.6,.68-.85,.35-.28,.83-.48,1.46-.59s1.17-.13,1.62-.05c.46,.07,.87,.17,1.22,.28,.35,.09,.63,.12,.85,.09,.28-.05,.49-.18,.62-.41,.16-.25,.26-.51,.33-.79,.06-.3,.07-.53,.05-.68-.06-.35-.35-.62-.88-.81-.53-.22-1.18-.35-1.94-.39s-1.56,.01-2.37,.16c-1.36,.24-2.4,.67-3.14,1.29-.72,.6-1.2,1.29-1.43,2.09-.24,.78-.3,1.53-.16,2.27,.16,.89,.47,1.56,.93,2.04,.49,.47,1.04,.8,1.68,1.01,.66,.2,1.34,.33,2.04,.4,.7,.05,1.36,.12,1.97,.22,.64,.09,1.17,.26,1.6,.52,.44,.23,.71,.63,.81,1.19,.08,.43-.05,.87-.37,1.3-.3,.43-.99,.74-2.07,.93-.93,.16-1.67,.18-2.23,.03-.56-.16-1.02-.34-1.39-.52-.35-.2-.66-.28-.94-.23-.22,.04-.41,.16-.57,.37-.14,.2-.24,.43-.31,.69-.05,.25-.05,.47-.01,.67,.07,.41,.38,.78,.93,1.1,.56,.3,1.29,.51,2.17,.61l-.02-.02Z"/></g></svg>